<svg enable-background="new 0 0 494.9 194.5" viewBox="0 0 494.9 194.5" xmlns="http://www.w3.org/2000/svg"><g fill="#5a5c63"><path d="m152.6 163.3c.1.2.1.4.1.5s0 .2-.1.3-.2.1-.4.1-.4 0-.8 0c-.3 0-.6 0-.8 0s-.3 0-.4-.1c-.1 0-.2-.1-.2-.1 0-.1-.1-.1-.1-.2l-1.7-4.8h-8.2l-1.6 4.7c0 .1-.1.2-.1.2s-.1.1-.2.2c-.1 0-.2.1-.4.1s-.4 0-.7 0-.5 0-.7 0-.3-.1-.4-.1c-.1-.1-.1-.2-.1-.3s0-.3.1-.5l6.6-18.3c0-.1.1-.2.2-.3s.2-.1.3-.2c.1 0 .3-.1.5-.1s.4 0 .8 0h.8s.4 0 .5.1c.1 0 .2.1.3.2s.1.2.2.3zm-8.4-16.2-3.4 9.8h6.8z"/><path d="m167.4 163.8c0 .1 0 .1-.1.2 0 .1-.1.1-.2.1s-.2.1-.4.1-.4 0-.6 0c-.3 0-.5 0-.6 0-.2 0-.3-.1-.4-.1s-.2-.1-.2-.1c0-.1-.1-.1-.1-.2v-8c0-.8-.1-1.4-.2-1.9s-.3-.9-.5-1.2-.5-.6-.9-.8-.8-.3-1.3-.3c-.6 0-1.3.2-1.9.7s-1.3 1.1-2 2v9.6c0 .1 0 .1-.1.2 0 .1-.1.1-.2.1s-.2.1-.4.1-.4 0-.6 0-.4 0-.6 0-.3-.1-.4-.1-.2-.1-.2-.1c0-.1-.1-.1-.1-.2v-13.7c0-.1 0-.1 0-.2s.1-.1.2-.2c.1 0 .2-.1.3-.1h.6.6c.1 0 .3 0 .3.1.1 0 .1.1.2.2 0 .1.1.1.1.2v1.8c.8-.9 1.5-1.5 2.3-1.9s1.5-.6 2.3-.6c.9 0 1.7.2 2.3.5s1.1.7 1.5 1.2.7 1.1.8 1.8.3 1.5.3 2.5v8.3z"/><path d="m194 163.3c.1.2.1.4.1.5s0 .2-.1.3-.2.1-.4.1-.4 0-.8 0c-.3 0-.6 0-.8 0s-.3 0-.4-.1c-.1 0-.2-.1-.2-.1 0-.1-.1-.1-.1-.2l-1.7-4.8h-8.2l-1.6 4.7c0 .1-.1.2-.1.2s-.1.1-.2.2c-.1 0-.2.1-.4.1s-.4 0-.7 0-.5 0-.7 0-.3-.1-.4-.1c-.1-.1-.1-.2-.1-.3s0-.3.1-.5l6.7-18.3c0-.1.1-.2.2-.3s.2-.1.3-.2c.1 0 .3-.1.5-.1h.8.8s.4 0 .5.1c.1 0 .2.1.3.2s.1.2.2.3zm-8.4-16.2-3.4 9.8h6.8z"/><path d="m208.8 163.8c0 .1 0 .1-.1.2 0 .1-.1.1-.2.1s-.2.1-.4.1-.4 0-.6 0c-.3 0-.5 0-.6 0-.2 0-.3-.1-.4-.1s-.2-.1-.2-.1-.1-.1-.1-.2v-8c0-.8-.1-1.4-.2-1.9s-.3-.9-.5-1.2-.5-.6-.9-.8-.8-.3-1.3-.3c-.6 0-1.3.2-1.9.7-.6.4-1.3 1.1-2 2v9.6c0 .1 0 .1-.1.2 0 .1-.1.1-.2.1s-.2.1-.4.1-.4 0-.6 0-.4 0-.6 0-.3-.1-.4-.1-.2-.1-.2-.1c0-.1-.1-.1-.1-.2v-13.7c0-.1 0-.1 0-.2s.1-.1.2-.2c.1 0 .2-.1.3-.1h.6.6s.3 0 .3.1c.1 0 .1.1.2.2 0 .1.1.1.1.2v1.8c.8-.9 1.5-1.5 2.3-1.9s1.5-.6 2.3-.6c.9 0 1.7.2 2.3.5s1.1.7 1.5 1.2.7 1.1.8 1.8.3 1.5.3 2.5v8.3z"/><path d="m216.2 145.5c0 .6-.1 1-.3 1.2s-.6.3-1.2.3-1-.1-1.2-.3-.3-.6-.3-1.2.1-1 .3-1.2.6-.3 1.2-.3 1 .1 1.2.3.3.6.3 1.2zm-.3 18.3c0 .1 0 .1-.1.2 0 .1-.1.1-.2.1s-.2.1-.4.1-.4 0-.6 0-.4 0-.6 0-.3-.1-.4-.1-.2-.1-.2-.1c0-.1-.1-.1-.1-.2v-13.7c0-.1 0-.1.1-.2 0-.1.1-.1.2-.2.1 0 .2-.1.4-.1h.6.6c.2 0 .3.1.4.1s.2.1.2.2.1.1.1.2z"/><path d="m240.8 163.8c0 .1 0 .1-.1.2 0 .1-.1.1-.2.1s-.2.1-.4.1-.4 0-.6 0c-.3 0-.5 0-.6 0-.2 0-.3-.1-.4-.1s-.2-.1-.2-.1c0-.1-.1-.1-.1-.2v-8.3c0-.6-.1-1.1-.2-1.6s-.3-.9-.5-1.2-.5-.6-.9-.8c-.3-.2-.8-.3-1.2-.3-.6 0-1.2.2-1.7.7s-1.2 1.1-1.9 2v9.6c0 .1 0 .1-.1.2 0 .1-.1.1-.2.1s-.2.1-.4.1-.4 0-.6 0-.4 0-.6 0-.3-.1-.4-.1-.2-.1-.2-.1c0-.1-.1-.1-.1-.2v-8.3c0-.6-.1-1.1-.2-1.6s-.3-.9-.5-1.2-.5-.6-.8-.8-.7-.3-1.2-.3c-.6 0-1.2.2-1.7.7-.6.4-1.2 1.1-1.9 2v9.6c0 .1 0 .1-.1.2 0 .1-.1.1-.2.1s-.2.1-.4.1-.4 0-.6 0-.4 0-.6 0-.3-.1-.4-.1-.2-.1-.2-.1c0-.1-.1-.1-.1-.2v-13.7c0-.1 0-.1 0-.2s.1-.1.2-.2c.1 0 .2-.1.3-.1h.6.6s.3 0 .3.1c.1 0 .1.1.2.2 0 .1.1.1.1.2v1.8c.8-.9 1.5-1.5 2.2-1.9s1.5-.6 2.2-.6c.6 0 1.1.1 1.5.2.5.1.8.3 1.2.6.3.2.6.5.9.9.2.3.4.7.6 1.1.5-.5.9-.9 1.3-1.3.4-.3.8-.6 1.2-.8s.8-.4 1.1-.5c.4-.1.7-.1 1.1-.1.9 0 1.6.2 2.2.5s1.1.7 1.5 1.2.6 1.1.8 1.8.2 1.4.2 2.2v8.4z"/><path d="m255.7 163.8c0 .1 0 .2-.1.3s-.2.1-.3.1-.3 0-.6 0-.5 0-.6 0c-.2 0-.3-.1-.3-.1-.1-.1-.1-.2-.1-.3v-1.4c-.6.6-1.3 1.1-2 1.5s-1.5.5-2.3.5c-.7 0-1.4-.1-2-.3s-1.1-.5-1.5-.8c-.4-.4-.7-.8-1-1.3-.2-.5-.3-1.1-.3-1.8 0-.8.2-1.4.5-2s.8-1 1.4-1.4 1.3-.7 2.2-.8 1.8-.3 2.9-.3h1.9v-1.1c0-.5-.1-1-.2-1.4s-.3-.7-.5-1-.6-.5-1-.6-.9-.2-1.5-.2-1.2.1-1.7.2-.9.3-1.3.5-.7.3-.9.5c-.2.1-.4.2-.6.2-.1 0-.2 0-.2-.1-.1 0-.1-.1-.2-.2 0-.1-.1-.2-.1-.3s0-.3 0-.4c0-.3 0-.5.1-.6 0-.1.1-.3.3-.4.1-.1.4-.3.7-.5s.7-.3 1.2-.5c.4-.1.9-.3 1.4-.4s1-.1 1.6-.1c1 0 1.8.1 2.5.3s1.2.5 1.7 1 .7 1 .9 1.6.3 1.4.3 2.2v9.4zm-2.5-6.2h-2.1c-.7 0-1.3.1-1.8.2s-.9.3-1.3.5c-.3.2-.6.5-.7.8-.2.3-.2.7-.2 1.1 0 .7.2 1.3.7 1.7s1.1.6 1.9.6c.7 0 1.3-.2 1.8-.5.6-.3 1.2-.8 1.8-1.5v-2.9z"/><path d="m262.8 163.8c0 .1 0 .1-.1.2 0 .1-.1.1-.2.1s-.2.1-.4.1-.4 0-.6 0-.4 0-.6 0-.3-.1-.4-.1-.2-.1-.2-.1c0-.1-.1-.1-.1-.2v-20.3c0-.1 0-.2.1-.2 0-.1.1-.1.2-.2.1 0 .2-.1.4-.1h.6.6c.2 0 .3.1.4.1s.2.1.2.2.1.1.1.2z"/><path d="m277.3 161.7v.4c0 .1 0 .2-.1.3 0 .1-.1.2-.1.2 0 .1-.1.2-.2.3s-.3.3-.6.5-.6.4-1 .5-.8.3-1.2.4-.9.1-1.4.1c-1 0-1.9-.2-2.6-.5-.8-.3-1.4-.8-1.9-1.4s-.9-1.4-1.2-2.3-.4-2-.4-3.1c0-1.3.2-2.5.5-3.5s.8-1.8 1.4-2.4 1.2-1.1 2-1.4 1.6-.4 2.5-.4c.4 0 .9 0 1.3.1s.8.2 1.1.3.7.3.9.5.5.3.6.4.2.2.3.3.1.2.1.3 0 .2.1.3v.5c0 .4 0 .7-.1.8-.1.2-.2.2-.3.2-.2 0-.3-.1-.5-.3s-.4-.4-.8-.6c-.3-.2-.7-.4-1.1-.6s-.9-.3-1.5-.3c-1.2 0-2.1.5-2.8 1.4-.6.9-1 2.3-1 4 0 .9.1 1.7.3 2.3s.4 1.2.7 1.7.7.8 1.2 1 1 .3 1.6.3 1.1-.1 1.5-.3.8-.4 1.1-.6.6-.4.8-.6.4-.3.5-.3.1 0 .2.1.1.1.1.2.1.2.1.4c-.1.4-.1.6-.1.8z"/><path d="m290.7 163.8c0 .1 0 .2-.1.3s-.2.1-.3.1-.3 0-.6 0-.5 0-.6 0c-.2 0-.3-.1-.3-.1-.1-.1-.1-.2-.1-.3v-1.4c-.6.6-1.3 1.1-2 1.5s-1.5.5-2.3.5c-.7 0-1.4-.1-2-.3s-1.1-.5-1.5-.8c-.4-.4-.7-.8-1-1.3-.2-.5-.3-1.1-.3-1.8 0-.8.2-1.4.5-2s.8-1 1.4-1.4 1.3-.7 2.2-.8 1.8-.3 2.9-.3h1.9v-1.1c0-.5-.1-1-.2-1.4s-.3-.7-.5-1-.6-.5-1-.6-.9-.2-1.5-.2-1.2.1-1.7.2-.9.3-1.3.5-.7.3-.9.5c-.2.1-.4.2-.6.2-.1 0-.2 0-.2-.1-.1 0-.1-.1-.2-.2 0-.1-.1-.2-.1-.3s0-.3 0-.4c0-.3 0-.5.1-.6 0-.1.1-.3.3-.4.1-.1.4-.3.7-.5s.7-.3 1.2-.5c.4-.1.9-.3 1.4-.4s1-.1 1.6-.1c1 0 1.8.1 2.5.3s1.2.5 1.7 1 .7 1 .9 1.6.3 1.4.3 2.2v9.4zm-2.5-6.2h-2.2c-.7 0-1.3.1-1.8.2s-.9.3-1.3.5c-.3.2-.6.5-.7.8-.2.3-.2.7-.2 1.1 0 .7.2 1.3.7 1.7s1.1.6 1.9.6c.7 0 1.3-.2 1.8-.5.6-.3 1.2-.8 1.8-1.5z"/><path d="m303.3 151v.6s0 .3-.1.4c0 .1-.1.2-.1.2s-.1.1-.2.1-.2 0-.3-.1-.2-.1-.4-.1c-.1 0-.3-.1-.5-.1s-.4-.1-.6-.1c-.3 0-.5.1-.7.2s-.5.3-.8.5-.5.5-.8.9-.6.9-1 1.4v9c0 .1 0 .1-.1.2 0 .1-.1.1-.2.1s-.2.1-.4.1-.4 0-.6 0-.4 0-.6 0-.3-.1-.4-.1-.2-.1-.2-.1c0-.1-.1-.1-.1-.2v-13.7c0-.1 0-.1 0-.2s.1-.1.2-.2c.1 0 .2-.1.3-.1h.6.6s.3 0 .3.1c.1 0 .1.1.2.2 0 .1.1.1.1.2v2c.4-.5.7-1 1.1-1.3.3-.3.6-.6.9-.8s.6-.3.9-.4.6-.1.9-.1h.4s.3 0 .5.1c.2 0 .3.1.5.1.1.1.3.1.3.2s.1.1.1.1 0 .1.1.2v.3s.1.2.1.4z"/><path d="m317.4 156.4c0 .4-.1.7-.3.8-.2.2-.4.3-.7.3h-9c0 .8.1 1.4.2 2.1.2.6.4 1.1.8 1.6s.8.8 1.4 1 1.3.3 2.1.3c.7 0 1.2-.1 1.7-.2s.9-.2 1.3-.4c.4-.1.7-.3.9-.4s.4-.2.5-.2.1 0 .2.1c.1 0 .1.1.1.2s.1.2.1.3v.5.3.3c0 .1 0 .1-.1.2 0 .1-.1.1-.1.2s-.2.1-.5.3c-.3.1-.6.3-1.1.4s-.9.2-1.5.3-1.2.1-1.8.1c-1.1 0-2.1-.2-3-.5-.8-.3-1.6-.8-2.1-1.4-.6-.6-1-1.4-1.3-2.3s-.4-2-.4-3.3c0-1.2.2-2.2.5-3.2.3-.9.7-1.7 1.3-2.4s1.3-1.2 2.1-1.5 1.7-.5 2.7-.5c1.1 0 2 .2 2.7.5s1.4.8 1.9 1.4.8 1.3 1.1 2.1c.2.8.3 1.6.3 2.5zm-2.6-.8c0-1.3-.3-2.4-.9-3.1-.6-.8-1.5-1.1-2.7-1.1-.6 0-1.2.1-1.6.3-.5.2-.9.5-1.2.9s-.6.8-.7 1.3c-.2.5-.3 1-.3 1.6h7.4z"/><path d="m341.6 161.4v.4c0 .1 0 .2-.1.3 0 .1-.1.2-.1.2 0 .1-.1.2-.2.3s-.3.3-.6.5-.7.4-1.2.6-1 .4-1.7.5-1.3.2-2 .2c-1.3 0-2.4-.2-3.5-.6-1-.4-1.9-1.1-2.6-1.9s-1.3-1.9-1.7-3.1-.6-2.6-.6-4.2.2-3.1.6-4.4 1-2.4 1.8-3.2c.8-.9 1.7-1.6 2.7-2 1.1-.5 2.2-.7 3.5-.7.6 0 1.1.1 1.7.2.5.1 1 .2 1.5.4s.9.3 1.2.6c.4.2.6.4.7.5s.2.2.3.3c0 .1.1.2.1.3s0 .2.1.3v.5.5c0 .1-.1.3-.1.4s-.1.2-.1.2c-.1 0-.1.1-.2.1s-.3-.1-.6-.3-.6-.4-1-.7c-.4-.2-.9-.5-1.5-.7s-1.3-.3-2.1-.3c-.9 0-1.7.2-2.4.5s-1.3.9-1.8 1.5c-.5.7-.9 1.5-1.2 2.5s-.4 2.1-.4 3.4c0 1.2.1 2.3.4 3.3s.7 1.8 1.2 2.4 1.1 1.1 1.9 1.5 1.6.5 2.5.5c.8 0 1.5-.1 2.1-.3s1.1-.4 1.5-.6.8-.5 1-.6c.3-.2.5-.3.6-.3h.2s.1.1.1.2.1.2.1.4c-.1 0-.1.2-.1.4z"/><path d="m357.5 156.8c0 1.1-.1 2.1-.4 3.1-.3.9-.7 1.7-1.3 2.4s-1.3 1.2-2.2 1.6-1.9.6-3 .6-2.1-.2-2.9-.5-1.5-.8-2.1-1.5c-.6-.6-1-1.4-1.2-2.3-.3-.9-.4-1.9-.4-3.1 0-1.1.1-2.1.4-3.1.3-.9.7-1.7 1.3-2.4s1.3-1.2 2.2-1.6 1.9-.6 3.1-.6c1.1 0 2.1.2 2.9.5s1.5.8 2.1 1.5c.6.6 1 1.4 1.3 2.3.1.9.2 2 .2 3.1zm-2.6.2c0-.7-.1-1.4-.2-2.1s-.4-1.2-.7-1.7-.7-.9-1.3-1.2c-.5-.3-1.2-.4-2-.4-.7 0-1.4.1-1.9.4s-1 .6-1.3 1.1-.6 1.1-.8 1.7c-.2.7-.3 1.4-.3 2.2 0 .7.1 1.5.2 2.1.1.7.4 1.2.7 1.7s.8.9 1.3 1.2 1.2.4 2 .4c.7 0 1.4-.1 1.9-.4s1-.6 1.3-1.1.6-1 .8-1.7c.3-.7.3-1.4.3-2.2z"/><path d="m381.5 163.8c0 .1 0 .1-.1.2 0 .1-.1.1-.2.1s-.2.1-.4.1-.4 0-.6 0c-.3 0-.5 0-.6 0-.2 0-.3-.1-.4-.1s-.2-.1-.2-.1c0-.1-.1-.1-.1-.2v-8.3c0-.6-.1-1.1-.2-1.6s-.3-.9-.5-1.2-.5-.6-.9-.8c-.3-.2-.8-.3-1.2-.3-.6 0-1.2.2-1.7.7s-1.2 1.1-1.9 2v9.6c0 .1 0 .1-.1.2 0 .1-.1.1-.2.1s-.2.1-.4.1-.4 0-.6 0-.4 0-.6 0-.3-.1-.4-.1-.2-.1-.2-.1c0-.1-.1-.1-.1-.2v-8.3c0-.6-.1-1.1-.2-1.6s-.3-.9-.5-1.2-.5-.6-.8-.8-.7-.3-1.2-.3c-.6 0-1.2.2-1.7.7-.6.4-1.2 1.1-1.9 2v9.6c0 .1 0 .1-.1.2 0 .1-.1.1-.2.1s-.2.1-.4.1-.4 0-.6 0-.4 0-.6 0-.3-.1-.4-.1-.2-.1-.2-.1c0-.1-.1-.1-.1-.2v-13.7c0-.1 0-.1 0-.2s.1-.1.2-.2c.1 0 .2-.1.3-.1h.6.6s.3 0 .3.1c.1 0 .1.1.2.2 0 .1.1.1.1.2v1.8c.8-.9 1.5-1.5 2.2-1.9s1.5-.6 2.2-.6c.6 0 1.1.1 1.5.2.5.1.8.3 1.2.6.3.2.6.5.9.9.2.3.4.7.6 1.1.5-.5.9-.9 1.3-1.3.4-.3.8-.6 1.2-.8s.8-.4 1.1-.5c.4-.1.7-.1 1.1-.1.9 0 1.6.2 2.2.5s1.1.7 1.5 1.2.6 1.1.8 1.8.2 1.4.2 2.2v8.4z"/><path d="m398.7 156.8c0 1.2-.1 2.3-.4 3.2-.3 1-.6 1.8-1.1 2.4-.5.7-1.1 1.2-1.9 1.5-.7.4-1.6.5-2.5.5-.4 0-.8 0-1.1-.1s-.7-.2-1-.4-.7-.4-1-.7-.7-.6-1-.9v6.8c0 .1 0 .2-.1.2 0 .1-.1.1-.2.2-.1 0-.2.1-.4.1s-.4 0-.6 0-.4 0-.6 0-.3-.1-.4-.1-.2-.1-.2-.2-.1-.1-.1-.2v-19.1c0-.1 0-.2 0-.2s.1-.1.2-.1.2-.1.3-.1h.5.5s.3 0 .3.1c.1 0 .2.1.2.1s.1.1.1.2v1.8c.4-.4.8-.8 1.2-1.1s.8-.6 1.2-.8.8-.4 1.2-.5.8-.2 1.3-.2c1 0 1.8.2 2.5.6s1.3.9 1.7 1.6.8 1.4 1 2.3c.3 1.1.4 2.1.4 3.1zm-2.6.2c0-.7-.1-1.4-.2-2-.1-.7-.3-1.2-.6-1.7s-.6-.9-1-1.2-1-.5-1.6-.5c-.3 0-.6 0-1 .1-.3.1-.6.2-1 .5-.3.2-.7.5-1 .8-.4.3-.7.8-1.1 1.3v5.4c.7.8 1.4 1.5 2 1.9s1.3.7 2 .7c.6 0 1.2-.2 1.6-.5.5-.3.8-.7 1.1-1.2s.5-1.1.6-1.7.2-1.2.2-1.9z"/><path d="m412.8 163.8c0 .1 0 .2-.1.3s-.2.1-.3.1-.3 0-.6 0-.5 0-.6 0c-.2 0-.3-.1-.3-.1-.1-.1-.1-.2-.1-.3v-1.4c-.6.6-1.3 1.1-2 1.5s-1.5.5-2.3.5c-.7 0-1.4-.1-2-.3s-1.1-.5-1.5-.8c-.4-.4-.7-.8-1-1.3-.2-.5-.3-1.1-.3-1.8 0-.8.2-1.4.5-2s.8-1 1.4-1.4 1.3-.7 2.2-.8 1.8-.3 2.9-.3h1.9v-1.1c0-.5-.1-1-.2-1.4s-.3-.7-.5-1-.6-.5-1-.6-.9-.2-1.5-.2-1.2.1-1.7.2-.9.3-1.3.5-.7.3-.9.5c-.2.1-.4.2-.6.2-.1 0-.2 0-.2-.1-.1 0-.1-.1-.2-.2 0-.1-.1-.2-.1-.3s0-.3 0-.4c0-.3 0-.5.1-.6 0-.1.1-.3.3-.4.1-.1.4-.3.7-.5s.7-.3 1.2-.5c.4-.1.9-.3 1.4-.4s1-.1 1.6-.1c1 0 1.8.1 2.5.3s1.2.5 1.7 1 .7 1 .9 1.6.3 1.4.3 2.2v9.4zm-2.5-6.2h-2.1c-.7 0-1.3.1-1.8.2s-.9.3-1.3.5c-.3.2-.6.5-.7.8-.2.3-.2.7-.2 1.1 0 .7.2 1.3.7 1.7s1.1.6 1.9.6c.7 0 1.3-.2 1.8-.5.6-.3 1.2-.8 1.8-1.5v-2.9z"/><path d="m429.1 163.8c0 .1 0 .1-.1.2 0 .1-.1.1-.2.1s-.2.1-.4.1-.4 0-.6 0c-.3 0-.5 0-.6 0-.2 0-.3-.1-.4-.1s-.2-.1-.2-.1-.1-.1-.1-.2v-8c0-.8-.1-1.4-.2-1.9s-.3-.9-.5-1.2-.5-.6-.9-.8-.8-.3-1.3-.3c-.6 0-1.3.2-1.9.7-.6.4-1.3 1.1-2 2v9.6c0 .1 0 .1-.1.2 0 .1-.1.1-.2.1s-.2.1-.4.1-.4 0-.6 0-.4 0-.6 0-.3-.1-.4-.1-.2-.1-.2-.1c0-.1-.1-.1-.1-.2v-13.7c0-.1 0-.1 0-.2s.1-.1.2-.2c.1 0 .2-.1.3-.1h.6.6s.3 0 .3.1c.1 0 .1.1.2.2 0 .1.1.1.1.2v1.8c.8-.9 1.5-1.5 2.3-1.9s1.5-.6 2.3-.6c.9 0 1.7.2 2.3.5s1.1.7 1.5 1.2.7 1.1.8 1.8.3 1.5.3 2.5v8.3z"/><path d="m439.4 164.2-1.8 5c-.1.2-.2.3-.5.4-.2.1-.6.1-1.1.1-.3 0-.5 0-.6 0s-.3-.1-.4-.1c-.1-.1-.1-.1-.1-.2s0-.2.1-.4l1.9-4.8c-.1 0-.2-.1-.3-.2s-.1-.2-.2-.3l-4.9-13.1c-.1-.2-.1-.4-.1-.5s0-.2.1-.3.2-.1.4-.1.4 0 .7 0 .5 0 .7 0 .3 0 .4.1c.1 0 .2.1.2.2s.1.2.1.3l3.9 11 3.8-11c.1-.2.1-.3.2-.4s.2-.1.4-.1h.7.7c.2 0 .3.1.4.1s.1.2.1.3 0 .3-.1.5z"/><path d="m137 111.4 2-.3c2.3-.3 2.7-.6 2.7-2.9v-40l-4.5-.3v-6.7h38.8v13.1l-8.3.7v-4c0-1.6-.5-2.2-2.2-2.2h-13.4v16.2h20.4v7.8h-20.4v17.5h14.3c1.7 0 2-.6 2-2.3v-4.4l8.3.7v13.6h-39.7z"/><path d="m192.7 96.2c0 8.6 4.5 14.6 12.1 14.6 3.4 0 6.7-1.3 10.1-3.8l3.8 6.8c-3.3 2.7-8.6 5.3-15.1 5.3-12.6 0-21.3-7.5-21.3-22.4 0-17.1 12.1-22.8 22-22.8 5.3 0 9.7 1.1 13.2 3.3v12.1l-7.9.6v-5c0-1.4-.2-2.1-1.4-2.6-.9-.3-2.3-.4-3.3-.4-6.7-.1-12.2 4.3-12.2 14.3z"/><path d="m262.4 108.7c0 2 .3 2.5 1.9 2.7l2.4.3v6.1h-13.7v-5.5h-.2c-2.6 4.5-7.3 6.7-12.8 6.7-8.9 0-13.4-4.6-13.4-14.6v-20.4c0-1.8-.5-2.2-2.1-2.5l-2.4-.2v-6.5h14.7v27.3c0 5.7 1 8.6 6.6 8.6 5.1 0 8.9-3.9 8.9-9.5v-17.1c0-2-.4-2.3-2-2.6l-2.3-.2v-6.5h14.4z"/><path d="m276.3 84c0-1.8-.5-2.4-2.1-2.5l-2.7-.2v-6.5h14.1v5.5c.1 0 .1.1.2.1 2.6-4.9 7.8-6.7 12.4-6.7 10.6 0 15.5 8 15.5 21.6 0 14.9-6.4 23.7-18.1 23.7-3.5 0-6.9-1-9.3-2.5v12.1l6.9.4v6.4h-21.6v-6.1l2.6-.3c1.6-.3 2.1-.7 2.1-2.8zm10.1 24.5c2 1.6 5 2.6 7.8 2.6 6.9 0 9.3-6.6 9.3-14.8s-1.8-14.6-8.4-14.6c-6 0-8.7 4.9-8.7 7.8z"/><path d="m323.7 66.2c0-2-.5-2.4-2.1-2.5l-2.7-.3v-6.4h14.7v23.8c3-5.5 8.1-7.1 12.4-7.1 9.9 0 13.4 6 13.4 14.6v22.8l4.3.3v6.4h-18.9v-6.1l2.6-.3c1.4-.3 1.8-1 1.8-2.8v-18c0-5.1-1.1-8.4-6.8-8.4-5.2 0-8.8 4.2-8.8 9.3v19.8l4.2.2v6.5h-18.8v-6.1l2.5-.3c1.6-.3 2.2-.7 2.2-2.8z"/><path d="m433.8 91v20.1l6.8.3v6.4h-21.5v-6.1l2.6-.3c2-.3 2.1-.9 2.1-2.8v-24.7c0-1.7-.5-2.1-2-2.4l-2.9-.2v-6.5h14v6.5h.1c1.6-3.7 5.2-7.6 12.1-7.6 2.5 0 5.5.3 7.8 1.6v14.2l-8.5.6v-5.4c0-1.4-.1-2-.8-2.2-.5-.3-1.3-.4-2.4-.4-4.6.1-7.4 3.9-7.4 8.9z"/><path d="m410.1 110.8v-36.2h-8.7v4c-3.8-3-8.6-4.8-13.7-4.8-12.3 0-22.2 9.9-22.2 22.2s9.9 22.2 22.2 22.2c5.2 0 10-1.8 13.7-4.8v4.2h13.2v-6.4zm-22.4-1.6c-7.3 0-13.2-5.9-13.2-13.2s5.9-13.2 13.2-13.2 13.2 5.9 13.2 13.2-5.9 13.2-13.2 13.2z"/></g><path d="m15 74.6c1.8-9.2 6.8-17.2 13.7-23.1 11.2-10.6 27.5-16.3 44.6-14.1 21.8 2.8 38.7 17.7 43.7 36.4-3.8-23.5-23.8-42.9-50.3-46.3-32.3-4.1-62.2 16.9-66.6 46.9-.6 3.9 2.5 7.5 6.8 7.8 3.4.2 6.4-1.9 7.5-4.8.1-.9.3-1.9.6-2.8z" fill="#85a8d8"/><path d="m105.5 104.6c-2.8 9-8.8 16.6-16.4 21.8-12.5 9.5-29.4 13.6-46.3 9.7-21.5-5-36.7-21.6-39.6-40.8 1.1 23.9 18.9 45.4 45.1 51.4 31.8 7.4 64.2-10.8 72.1-40.4 1-3.9-1.7-7.8-5.9-8.5-3.4-.5-6.6 1.2-8 4-.4.9-.7 1.9-1 2.8z" fill="#85a8d8"/><path d="m48.2 57.5c7.3-2.2 14.9-2 21.8.2 11.7 3.2 21.7 11.3 26.4 22.8 5.9 14.7 1.3 30.7-10.4 40.7 15.6-10.9 22.4-30.6 15.2-48.4-8.8-21.8-35-32.8-58.3-24.7-3 1.1-4.5 4.3-3.1 7.1 1.1 2.2 3.7 3.3 6.2 2.9.7-.2 1.4-.4 2.2-.6z" fill="#85a8d8"/><path d="m69 119.5c-6.5 1.8-13.1 1.4-19-.7-10.2-3.1-18.7-10.4-22.5-20.5-4.8-13-.3-26.8 10.2-35.3-14 9.2-20.4 26.1-14.6 41.9 7.1 19.2 29.6 29.4 50.2 22.9 2.7-.9 4.1-3.7 2.9-6.1-.9-1.9-3.1-3-5.3-2.7-.6.1-1.3.3-1.9.5z" fill="#85a8d8"/><path d="m53.3 71c4.9-1.6 10.1-1.5 14.7-.1 8 2 14.9 7.4 18.2 15.1 4.2 9.9 1.2 20.7-6.6 27.6 10.4-7.6 14.8-20.9 9.7-32.9-6.2-14.6-24-21.8-39.7-16-2 .8-3 3-2 4.8.8 1.5 2.5 2.2 4.2 1.9.5-.1 1-.3 1.5-.4z" fill="#85a8d8"/><path d="m76.1 95.3c-1.2 3.8-3.7 6.9-7 9.1-5.3 3.9-12.4 5.6-19.4 3.9-9-2.2-15.3-9.2-16.4-17.3.3 10 7.7 19.1 18.6 21.7 13.3 3.2 26.9-4.2 30.4-16.6.5-1.6-.7-3.3-2.4-3.6-1.4-.2-2.8.5-3.4 1.7-.1.4-.3.8-.4 1.1z" fill="#85a8d8"/></svg>