<?xml version="1.0" encoding="utf-8"?>
<!-- Generator: Adobe Illustrator 25.2.1, SVG Export Plug-In . SVG Version: 6.00 Build 0)  -->
<svg version="1.1" id="Layer_1" xmlns="http://www.w3.org/2000/svg" xmlns:xlink="http://www.w3.org/1999/xlink" x="0px" y="0px"
	 viewBox="0 0 494.9 194.5" style="enable-background:new 0 0 494.9 194.5;" xml:space="preserve">
<style type="text/css">
	.st0{fill:#5A5C63;}
	.st1{fill:#85A8D8;}
</style>
<g>
	<g>
		<path class="st0" d="M152.6,163.3c0.1,0.2,0.1,0.4,0.1,0.5s0,0.2-0.1,0.3c-0.1,0.1-0.2,0.1-0.4,0.1c-0.2,0-0.4,0-0.8,0
			c-0.3,0-0.6,0-0.8,0s-0.3,0-0.4-0.1c-0.1,0-0.2-0.1-0.2-0.1c0-0.1-0.1-0.1-0.1-0.2l-1.7-4.8h-8.2l-1.6,4.7c0,0.1-0.1,0.2-0.1,0.2
			s-0.1,0.1-0.2,0.2c-0.1,0-0.2,0.1-0.4,0.1c-0.2,0-0.4,0-0.7,0c-0.3,0-0.5,0-0.7,0c-0.2,0-0.3-0.1-0.4-0.1
			c-0.1-0.1-0.1-0.2-0.1-0.3c0-0.1,0-0.3,0.1-0.5l6.6-18.3c0-0.1,0.1-0.2,0.2-0.3c0.1-0.1,0.2-0.1,0.3-0.2c0.1,0,0.3-0.1,0.5-0.1
			s0.4,0,0.8,0c0.3,0,0.6,0,0.8,0s0.4,0,0.5,0.1c0.1,0,0.2,0.1,0.3,0.2c0.1,0.1,0.1,0.2,0.2,0.3L152.6,163.3z M144.2,147.1
			L144.2,147.1l-3.4,9.8h6.8L144.2,147.1z"/>
		<path class="st0" d="M167.4,163.8c0,0.1,0,0.1-0.1,0.2c0,0.1-0.1,0.1-0.2,0.1c-0.1,0-0.2,0.1-0.4,0.1c-0.2,0-0.4,0-0.6,0
			c-0.3,0-0.5,0-0.6,0c-0.2,0-0.3-0.1-0.4-0.1c-0.1,0-0.2-0.1-0.2-0.1c0-0.1-0.1-0.1-0.1-0.2v-8c0-0.8-0.1-1.4-0.2-1.9
			c-0.1-0.5-0.3-0.9-0.5-1.2c-0.2-0.3-0.5-0.6-0.9-0.8c-0.4-0.2-0.8-0.3-1.3-0.3c-0.6,0-1.3,0.2-1.9,0.7s-1.3,1.1-2,2v9.6
			c0,0.1,0,0.1-0.1,0.2c0,0.1-0.1,0.1-0.2,0.1c-0.1,0-0.2,0.1-0.4,0.1c-0.2,0-0.4,0-0.6,0c-0.2,0-0.4,0-0.6,0
			c-0.2,0-0.3-0.1-0.4-0.1c-0.1,0-0.2-0.1-0.2-0.1c0-0.1-0.1-0.1-0.1-0.2v-13.7c0-0.1,0-0.1,0-0.2s0.1-0.1,0.2-0.2
			c0.1,0,0.2-0.1,0.3-0.1c0.1,0,0.3,0,0.6,0c0.2,0,0.4,0,0.6,0c0.1,0,0.3,0,0.3,0.1c0.1,0,0.1,0.1,0.2,0.2c0,0.1,0.1,0.1,0.1,0.2
			v1.8c0.8-0.9,1.5-1.5,2.3-1.9c0.8-0.4,1.5-0.6,2.3-0.6c0.9,0,1.7,0.2,2.3,0.5s1.1,0.7,1.5,1.2c0.4,0.5,0.7,1.1,0.8,1.8
			s0.3,1.5,0.3,2.5V163.8z"/>
		<path class="st0" d="M194,163.3c0.1,0.2,0.1,0.4,0.1,0.5c0,0.1,0,0.2-0.1,0.3c-0.1,0.1-0.2,0.1-0.4,0.1c-0.2,0-0.4,0-0.8,0
			c-0.3,0-0.6,0-0.8,0s-0.3,0-0.4-0.1c-0.1,0-0.2-0.1-0.2-0.1c0-0.1-0.1-0.1-0.1-0.2l-1.7-4.8h-8.2l-1.6,4.7c0,0.1-0.1,0.2-0.1,0.2
			s-0.1,0.1-0.2,0.2c-0.1,0-0.2,0.1-0.4,0.1c-0.2,0-0.4,0-0.7,0c-0.3,0-0.5,0-0.7,0c-0.2,0-0.3-0.1-0.4-0.1
			c-0.1-0.1-0.1-0.2-0.1-0.3c0-0.1,0-0.3,0.1-0.5L184,145c0-0.1,0.1-0.2,0.2-0.3s0.2-0.1,0.3-0.2c0.1,0,0.3-0.1,0.5-0.1
			c0.2,0,0.4,0,0.8,0c0.3,0,0.6,0,0.8,0s0.4,0,0.5,0.1c0.1,0,0.2,0.1,0.3,0.2c0.1,0.1,0.1,0.2,0.2,0.3L194,163.3z M185.6,147.1
			L185.6,147.1l-3.4,9.8h6.8L185.6,147.1z"/>
		<path class="st0" d="M208.8,163.8c0,0.1,0,0.1-0.1,0.2c0,0.1-0.1,0.1-0.2,0.1c-0.1,0-0.2,0.1-0.4,0.1c-0.2,0-0.4,0-0.6,0
			c-0.3,0-0.5,0-0.6,0c-0.2,0-0.3-0.1-0.4-0.1c-0.1,0-0.2-0.1-0.2-0.1s-0.1-0.1-0.1-0.2v-8c0-0.8-0.1-1.4-0.2-1.9
			c-0.1-0.5-0.3-0.9-0.5-1.2c-0.2-0.3-0.5-0.6-0.9-0.8c-0.4-0.2-0.8-0.3-1.3-0.3c-0.6,0-1.3,0.2-1.9,0.7c-0.6,0.4-1.3,1.1-2,2v9.6
			c0,0.1,0,0.1-0.1,0.2c0,0.1-0.1,0.1-0.2,0.1c-0.1,0-0.2,0.1-0.4,0.1c-0.2,0-0.4,0-0.6,0c-0.2,0-0.4,0-0.6,0
			c-0.2,0-0.3-0.1-0.4-0.1c-0.1,0-0.2-0.1-0.2-0.1c0-0.1-0.1-0.1-0.1-0.2v-13.7c0-0.1,0-0.1,0-0.2s0.1-0.1,0.2-0.2
			c0.1,0,0.2-0.1,0.3-0.1c0.1,0,0.3,0,0.6,0c0.2,0,0.4,0,0.6,0s0.3,0,0.3,0.1c0.1,0,0.1,0.1,0.2,0.2c0,0.1,0.1,0.1,0.1,0.2v1.8
			c0.8-0.9,1.5-1.5,2.3-1.9c0.8-0.4,1.5-0.6,2.3-0.6c0.9,0,1.7,0.2,2.3,0.5s1.1,0.7,1.5,1.2c0.4,0.5,0.7,1.1,0.8,1.8
			s0.3,1.5,0.3,2.5V163.8z"/>
		<path class="st0" d="M216.2,145.5c0,0.6-0.1,1-0.3,1.2s-0.6,0.3-1.2,0.3c-0.6,0-1-0.1-1.2-0.3s-0.3-0.6-0.3-1.2
			c0-0.6,0.1-1,0.3-1.2c0.2-0.2,0.6-0.3,1.2-0.3c0.6,0,1,0.1,1.2,0.3C216.1,144.5,216.2,144.9,216.2,145.5z M215.9,163.8
			c0,0.1,0,0.1-0.1,0.2c0,0.1-0.1,0.1-0.2,0.1c-0.1,0-0.2,0.1-0.4,0.1c-0.2,0-0.4,0-0.6,0c-0.2,0-0.4,0-0.6,0
			c-0.2,0-0.3-0.1-0.4-0.1c-0.1,0-0.2-0.1-0.2-0.1c0-0.1-0.1-0.1-0.1-0.2v-13.7c0-0.1,0-0.1,0.1-0.2c0-0.1,0.1-0.1,0.2-0.2
			c0.1,0,0.2-0.1,0.4-0.1c0.2,0,0.4,0,0.6,0c0.3,0,0.5,0,0.6,0c0.2,0,0.3,0.1,0.4,0.1c0.1,0,0.2,0.1,0.2,0.2c0,0.1,0.1,0.1,0.1,0.2
			V163.8z"/>
		<path class="st0" d="M240.8,163.8c0,0.1,0,0.1-0.1,0.2c0,0.1-0.1,0.1-0.2,0.1c-0.1,0-0.2,0.1-0.4,0.1c-0.2,0-0.4,0-0.6,0
			c-0.3,0-0.5,0-0.6,0c-0.2,0-0.3-0.1-0.4-0.1c-0.1,0-0.2-0.1-0.2-0.1c0-0.1-0.1-0.1-0.1-0.2v-8.3c0-0.6-0.1-1.1-0.2-1.6
			c-0.1-0.5-0.3-0.9-0.5-1.2c-0.2-0.3-0.5-0.6-0.9-0.8c-0.3-0.2-0.8-0.3-1.2-0.3c-0.6,0-1.2,0.2-1.7,0.7s-1.2,1.1-1.9,2v9.6
			c0,0.1,0,0.1-0.1,0.2c0,0.1-0.1,0.1-0.2,0.1c-0.1,0-0.2,0.1-0.4,0.1c-0.2,0-0.4,0-0.6,0c-0.2,0-0.4,0-0.6,0
			c-0.2,0-0.3-0.1-0.4-0.1c-0.1,0-0.2-0.1-0.2-0.1c0-0.1-0.1-0.1-0.1-0.2v-8.3c0-0.6-0.1-1.1-0.2-1.6c-0.1-0.5-0.3-0.9-0.5-1.2
			c-0.2-0.3-0.5-0.6-0.8-0.8c-0.3-0.2-0.7-0.3-1.2-0.3c-0.6,0-1.2,0.2-1.7,0.7c-0.6,0.4-1.2,1.1-1.9,2v9.6c0,0.1,0,0.1-0.1,0.2
			c0,0.1-0.1,0.1-0.2,0.1c-0.1,0-0.2,0.1-0.4,0.1c-0.2,0-0.4,0-0.6,0c-0.2,0-0.4,0-0.6,0c-0.2,0-0.3-0.1-0.4-0.1
			c-0.1,0-0.2-0.1-0.2-0.1c0-0.1-0.1-0.1-0.1-0.2v-13.7c0-0.1,0-0.1,0-0.2s0.1-0.1,0.2-0.2c0.1,0,0.2-0.1,0.3-0.1c0.1,0,0.3,0,0.6,0
			c0.2,0,0.4,0,0.6,0s0.3,0,0.3,0.1c0.1,0,0.1,0.1,0.2,0.2c0,0.1,0.1,0.1,0.1,0.2v1.8c0.8-0.9,1.5-1.5,2.2-1.9s1.5-0.6,2.2-0.6
			c0.6,0,1.1,0.1,1.5,0.2c0.5,0.1,0.8,0.3,1.2,0.6c0.3,0.2,0.6,0.5,0.9,0.9c0.2,0.3,0.4,0.7,0.6,1.1c0.5-0.5,0.9-0.9,1.3-1.3
			c0.4-0.3,0.8-0.6,1.2-0.8c0.4-0.2,0.8-0.4,1.1-0.5c0.4-0.1,0.7-0.1,1.1-0.1c0.9,0,1.6,0.2,2.2,0.5s1.1,0.7,1.5,1.2
			c0.4,0.5,0.6,1.1,0.8,1.8s0.2,1.4,0.2,2.2V163.8z"/>
		<path class="st0" d="M255.7,163.8c0,0.1,0,0.2-0.1,0.3c-0.1,0.1-0.2,0.1-0.3,0.1c-0.1,0-0.3,0-0.6,0c-0.3,0-0.5,0-0.6,0
			c-0.2,0-0.3-0.1-0.3-0.1c-0.1-0.1-0.1-0.2-0.1-0.3v-1.4c-0.6,0.6-1.3,1.1-2,1.5s-1.5,0.5-2.3,0.5c-0.7,0-1.4-0.1-2-0.3
			c-0.6-0.2-1.1-0.5-1.5-0.8c-0.4-0.4-0.7-0.8-1-1.3c-0.2-0.5-0.3-1.1-0.3-1.8c0-0.8,0.2-1.4,0.5-2s0.8-1,1.4-1.4
			c0.6-0.4,1.3-0.7,2.2-0.8s1.8-0.3,2.9-0.3h1.9v-1.1c0-0.5-0.1-1-0.2-1.4c-0.1-0.4-0.3-0.7-0.5-1c-0.2-0.3-0.6-0.5-1-0.6
			s-0.9-0.2-1.5-0.2c-0.6,0-1.2,0.1-1.7,0.2c-0.5,0.1-0.9,0.3-1.3,0.5c-0.4,0.2-0.7,0.3-0.9,0.5c-0.2,0.1-0.4,0.2-0.6,0.2
			c-0.1,0-0.2,0-0.2-0.1c-0.1,0-0.1-0.1-0.2-0.2c0-0.1-0.1-0.2-0.1-0.3c0-0.1,0-0.3,0-0.4c0-0.3,0-0.5,0.1-0.6
			c0-0.1,0.1-0.3,0.3-0.4c0.1-0.1,0.4-0.3,0.7-0.5s0.7-0.3,1.2-0.5c0.4-0.1,0.9-0.3,1.4-0.4c0.5-0.1,1-0.1,1.6-0.1
			c1,0,1.8,0.1,2.5,0.3c0.7,0.2,1.2,0.5,1.7,1s0.7,1,0.9,1.6c0.2,0.6,0.3,1.4,0.3,2.2V163.8z M253.2,157.6h-2.1
			c-0.7,0-1.3,0.1-1.8,0.2c-0.5,0.1-0.9,0.3-1.3,0.5c-0.3,0.2-0.6,0.5-0.7,0.8c-0.2,0.3-0.2,0.7-0.2,1.1c0,0.7,0.2,1.3,0.7,1.7
			s1.1,0.6,1.9,0.6c0.7,0,1.3-0.2,1.8-0.5c0.6-0.3,1.2-0.8,1.8-1.5V157.6z"/>
		<path class="st0" d="M262.8,163.8c0,0.1,0,0.1-0.1,0.2c0,0.1-0.1,0.1-0.2,0.1c-0.1,0-0.2,0.1-0.4,0.1c-0.2,0-0.4,0-0.6,0
			c-0.2,0-0.4,0-0.6,0c-0.2,0-0.3-0.1-0.4-0.1c-0.1,0-0.2-0.1-0.2-0.1c0-0.1-0.1-0.1-0.1-0.2v-20.3c0-0.1,0-0.2,0.1-0.2
			c0-0.1,0.1-0.1,0.2-0.2c0.1,0,0.2-0.1,0.4-0.1c0.2,0,0.4,0,0.6,0c0.3,0,0.5,0,0.6,0c0.2,0,0.3,0.1,0.4,0.1c0.1,0,0.2,0.1,0.2,0.2
			c0,0.1,0.1,0.1,0.1,0.2V163.8z"/>
		<path class="st0" d="M277.3,161.7c0,0.2,0,0.3,0,0.4c0,0.1,0,0.2-0.1,0.3c0,0.1-0.1,0.2-0.1,0.2c0,0.1-0.1,0.2-0.2,0.3
			c-0.1,0.1-0.3,0.3-0.6,0.5s-0.6,0.4-1,0.5c-0.4,0.1-0.8,0.3-1.2,0.4c-0.4,0.1-0.9,0.1-1.4,0.1c-1,0-1.9-0.2-2.6-0.5
			c-0.8-0.3-1.4-0.8-1.9-1.4s-0.9-1.4-1.2-2.3s-0.4-2-0.4-3.1c0-1.3,0.2-2.5,0.5-3.5c0.3-1,0.8-1.8,1.4-2.4c0.6-0.6,1.2-1.1,2-1.4
			s1.6-0.4,2.5-0.4c0.4,0,0.9,0,1.3,0.1s0.8,0.2,1.1,0.3c0.3,0.1,0.7,0.3,0.9,0.5s0.5,0.3,0.6,0.4c0.1,0.1,0.2,0.2,0.3,0.3
			s0.1,0.2,0.1,0.3c0,0.1,0,0.2,0.1,0.3c0,0.1,0,0.3,0,0.5c0,0.4,0,0.7-0.1,0.8c-0.1,0.2-0.2,0.2-0.3,0.2c-0.2,0-0.3-0.1-0.5-0.3
			c-0.2-0.2-0.4-0.4-0.8-0.6c-0.3-0.2-0.7-0.4-1.1-0.6c-0.4-0.2-0.9-0.3-1.5-0.3c-1.2,0-2.1,0.5-2.8,1.4c-0.6,0.9-1,2.3-1,4
			c0,0.9,0.1,1.7,0.3,2.3s0.4,1.2,0.7,1.7s0.7,0.8,1.2,1c0.5,0.2,1,0.3,1.6,0.3c0.6,0,1.1-0.1,1.5-0.3c0.4-0.2,0.8-0.4,1.1-0.6
			c0.3-0.2,0.6-0.4,0.8-0.6s0.4-0.3,0.5-0.3c0.1,0,0.1,0,0.2,0.1s0.1,0.1,0.1,0.2c0,0.1,0.1,0.2,0.1,0.4
			C277.3,161.3,277.3,161.5,277.3,161.7z"/>
		<path class="st0" d="M290.7,163.8c0,0.1,0,0.2-0.1,0.3c-0.1,0.1-0.2,0.1-0.3,0.1c-0.1,0-0.3,0-0.6,0c-0.3,0-0.5,0-0.6,0
			c-0.2,0-0.3-0.1-0.3-0.1c-0.1-0.1-0.1-0.2-0.1-0.3v-1.4c-0.6,0.6-1.3,1.1-2,1.5s-1.5,0.5-2.3,0.5c-0.7,0-1.4-0.1-2-0.3
			c-0.6-0.2-1.1-0.5-1.5-0.8c-0.4-0.4-0.7-0.8-1-1.3c-0.2-0.5-0.3-1.1-0.3-1.8c0-0.8,0.2-1.4,0.5-2s0.8-1,1.4-1.4
			c0.6-0.4,1.3-0.7,2.2-0.8s1.8-0.3,2.9-0.3h1.9v-1.1c0-0.5-0.1-1-0.2-1.4c-0.1-0.4-0.3-0.7-0.5-1c-0.2-0.3-0.6-0.5-1-0.6
			s-0.9-0.2-1.5-0.2c-0.6,0-1.2,0.1-1.7,0.2c-0.5,0.1-0.9,0.3-1.3,0.5c-0.4,0.2-0.7,0.3-0.9,0.5c-0.2,0.1-0.4,0.2-0.6,0.2
			c-0.1,0-0.2,0-0.2-0.1c-0.1,0-0.1-0.1-0.2-0.2c0-0.1-0.1-0.2-0.1-0.3c0-0.1,0-0.3,0-0.4c0-0.3,0-0.5,0.1-0.6
			c0-0.1,0.1-0.3,0.3-0.4c0.1-0.1,0.4-0.3,0.7-0.5s0.7-0.3,1.2-0.5c0.4-0.1,0.9-0.3,1.4-0.4c0.5-0.1,1-0.1,1.6-0.1
			c1,0,1.8,0.1,2.5,0.3c0.7,0.2,1.2,0.5,1.7,1s0.7,1,0.9,1.6c0.2,0.6,0.3,1.4,0.3,2.2V163.8z M288.2,157.6H286
			c-0.7,0-1.3,0.1-1.8,0.2c-0.5,0.1-0.9,0.3-1.3,0.5c-0.3,0.2-0.6,0.5-0.7,0.8c-0.2,0.3-0.2,0.7-0.2,1.1c0,0.7,0.2,1.3,0.7,1.7
			s1.1,0.6,1.9,0.6c0.7,0,1.3-0.2,1.8-0.5c0.6-0.3,1.2-0.8,1.8-1.5V157.6z"/>
		<path class="st0" d="M303.3,151c0,0.2,0,0.4,0,0.6s0,0.3-0.1,0.4c0,0.1-0.1,0.2-0.1,0.2s-0.1,0.1-0.2,0.1c-0.1,0-0.2,0-0.3-0.1
			s-0.2-0.1-0.4-0.1c-0.1,0-0.3-0.1-0.5-0.1c-0.2,0-0.4-0.1-0.6-0.1c-0.3,0-0.5,0.1-0.7,0.2c-0.2,0.1-0.5,0.3-0.8,0.5
			c-0.3,0.2-0.5,0.5-0.8,0.9s-0.6,0.9-1,1.4v9c0,0.1,0,0.1-0.1,0.2c0,0.1-0.1,0.1-0.2,0.1c-0.1,0-0.2,0.1-0.4,0.1
			c-0.2,0-0.4,0-0.6,0c-0.2,0-0.4,0-0.6,0c-0.2,0-0.3-0.1-0.4-0.1c-0.1,0-0.2-0.1-0.2-0.1c0-0.1-0.1-0.1-0.1-0.2v-13.7
			c0-0.1,0-0.1,0-0.2s0.1-0.1,0.2-0.2c0.1,0,0.2-0.1,0.3-0.1c0.1,0,0.3,0,0.6,0c0.2,0,0.4,0,0.6,0s0.3,0,0.3,0.1
			c0.1,0,0.1,0.1,0.2,0.2c0,0.1,0.1,0.1,0.1,0.2v2c0.4-0.5,0.7-1,1.1-1.3c0.3-0.3,0.6-0.6,0.9-0.8c0.3-0.2,0.6-0.3,0.9-0.4
			c0.3-0.1,0.6-0.1,0.9-0.1c0.1,0,0.3,0,0.4,0s0.3,0,0.5,0.1c0.2,0,0.3,0.1,0.5,0.1c0.1,0.1,0.3,0.1,0.3,0.2s0.1,0.1,0.1,0.1
			c0,0,0,0.1,0.1,0.2c0,0.1,0,0.2,0,0.3S303.3,150.8,303.3,151z"/>
		<path class="st0" d="M317.4,156.4c0,0.4-0.1,0.7-0.3,0.8c-0.2,0.2-0.4,0.3-0.7,0.3h-9c0,0.8,0.1,1.4,0.2,2.1
			c0.2,0.6,0.4,1.1,0.8,1.6s0.8,0.8,1.4,1s1.3,0.3,2.1,0.3c0.7,0,1.2-0.1,1.7-0.2c0.5-0.1,0.9-0.2,1.3-0.4c0.4-0.1,0.7-0.3,0.9-0.4
			s0.4-0.2,0.5-0.2c0.1,0,0.1,0,0.2,0.1c0.1,0,0.1,0.1,0.1,0.2c0,0.1,0.1,0.2,0.1,0.3c0,0.1,0,0.3,0,0.5c0,0.1,0,0.2,0,0.3
			c0,0.1,0,0.2,0,0.3c0,0.1,0,0.1-0.1,0.2c0,0.1-0.1,0.1-0.1,0.2s-0.2,0.1-0.5,0.3c-0.3,0.1-0.6,0.3-1.1,0.4s-0.9,0.2-1.5,0.3
			c-0.6,0.1-1.2,0.1-1.8,0.1c-1.1,0-2.1-0.2-3-0.5c-0.8-0.3-1.6-0.8-2.1-1.4c-0.6-0.6-1-1.4-1.3-2.3c-0.3-0.9-0.4-2-0.4-3.3
			c0-1.2,0.2-2.2,0.5-3.2c0.3-0.9,0.7-1.7,1.3-2.4c0.6-0.7,1.3-1.2,2.1-1.5s1.7-0.5,2.7-0.5c1.1,0,2,0.2,2.7,0.5s1.4,0.8,1.9,1.4
			s0.8,1.3,1.1,2.1c0.2,0.8,0.3,1.6,0.3,2.5V156.4z M314.8,155.6c0-1.3-0.3-2.4-0.9-3.1c-0.6-0.8-1.5-1.1-2.7-1.1
			c-0.6,0-1.2,0.1-1.6,0.3c-0.5,0.2-0.9,0.5-1.2,0.9c-0.3,0.4-0.6,0.8-0.7,1.3c-0.2,0.5-0.3,1-0.3,1.6H314.8z"/>
		<path class="st0" d="M341.6,161.4c0,0.2,0,0.3,0,0.4c0,0.1,0,0.2-0.1,0.3c0,0.1-0.1,0.2-0.1,0.2c0,0.1-0.1,0.2-0.2,0.3
			c-0.1,0.1-0.3,0.3-0.6,0.5s-0.7,0.4-1.2,0.6c-0.5,0.2-1,0.4-1.7,0.5s-1.3,0.2-2,0.2c-1.3,0-2.4-0.2-3.5-0.6
			c-1-0.4-1.9-1.1-2.6-1.9c-0.7-0.8-1.3-1.9-1.7-3.1c-0.4-1.2-0.6-2.6-0.6-4.2c0-1.6,0.2-3.1,0.6-4.4c0.4-1.3,1-2.4,1.8-3.2
			c0.8-0.9,1.7-1.6,2.7-2c1.1-0.5,2.2-0.7,3.5-0.7c0.6,0,1.1,0.1,1.7,0.2c0.5,0.1,1,0.2,1.5,0.4s0.9,0.3,1.2,0.6
			c0.4,0.2,0.6,0.4,0.7,0.5c0.1,0.1,0.2,0.2,0.3,0.3c0,0.1,0.1,0.2,0.1,0.3s0,0.2,0.1,0.3c0,0.1,0,0.3,0,0.5c0,0.2,0,0.4,0,0.5
			c0,0.1-0.1,0.3-0.1,0.4s-0.1,0.2-0.1,0.2c-0.1,0-0.1,0.1-0.2,0.1c-0.1,0-0.3-0.1-0.6-0.3c-0.3-0.2-0.6-0.4-1-0.7
			c-0.4-0.2-0.9-0.5-1.5-0.7c-0.6-0.2-1.3-0.3-2.1-0.3c-0.9,0-1.7,0.2-2.4,0.5s-1.3,0.9-1.8,1.5c-0.5,0.7-0.9,1.5-1.2,2.5
			c-0.3,1-0.4,2.1-0.4,3.4c0,1.2,0.1,2.3,0.4,3.3c0.3,1,0.7,1.8,1.2,2.4c0.5,0.6,1.1,1.1,1.9,1.5s1.6,0.5,2.5,0.5
			c0.8,0,1.5-0.1,2.1-0.3c0.6-0.2,1.1-0.4,1.5-0.6c0.4-0.2,0.8-0.5,1-0.6c0.3-0.2,0.5-0.3,0.6-0.3c0.1,0,0.1,0,0.2,0
			s0.1,0.1,0.1,0.2c0,0.1,0.1,0.2,0.1,0.4C341.6,161,341.6,161.2,341.6,161.4z"/>
		<path class="st0" d="M357.5,156.8c0,1.1-0.1,2.1-0.4,3.1c-0.3,0.9-0.7,1.7-1.3,2.4s-1.3,1.2-2.2,1.6s-1.9,0.6-3,0.6
			c-1.1,0-2.1-0.2-2.9-0.5c-0.8-0.3-1.5-0.8-2.1-1.5c-0.6-0.6-1-1.4-1.2-2.3c-0.3-0.9-0.4-1.9-0.4-3.1c0-1.1,0.1-2.1,0.4-3.1
			c0.3-0.9,0.7-1.7,1.3-2.4c0.6-0.7,1.3-1.2,2.2-1.6c0.9-0.4,1.9-0.6,3.1-0.6c1.1,0,2.1,0.2,2.9,0.5c0.8,0.3,1.5,0.8,2.1,1.5
			c0.6,0.6,1,1.4,1.3,2.3C357.4,154.6,357.5,155.7,357.5,156.8z M354.9,157c0-0.7-0.1-1.4-0.2-2.1c-0.1-0.7-0.4-1.2-0.7-1.7
			c-0.3-0.5-0.7-0.9-1.3-1.2c-0.5-0.3-1.2-0.4-2-0.4c-0.7,0-1.4,0.1-1.9,0.4c-0.5,0.3-1,0.6-1.3,1.1c-0.3,0.5-0.6,1.1-0.8,1.7
			c-0.2,0.7-0.3,1.4-0.3,2.2c0,0.7,0.1,1.5,0.2,2.1c0.1,0.7,0.4,1.2,0.7,1.7c0.3,0.5,0.8,0.9,1.3,1.2s1.2,0.4,2,0.4
			c0.7,0,1.4-0.1,1.9-0.4c0.5-0.3,1-0.6,1.3-1.1s0.6-1,0.8-1.7C354.9,158.5,354.9,157.8,354.9,157z"/>
		<path class="st0" d="M381.5,163.8c0,0.1,0,0.1-0.1,0.2c0,0.1-0.1,0.1-0.2,0.1c-0.1,0-0.2,0.1-0.4,0.1c-0.2,0-0.4,0-0.6,0
			c-0.3,0-0.5,0-0.6,0c-0.2,0-0.3-0.1-0.4-0.1c-0.1,0-0.2-0.1-0.2-0.1c0-0.1-0.1-0.1-0.1-0.2v-8.3c0-0.6-0.1-1.1-0.2-1.6
			c-0.1-0.5-0.3-0.9-0.5-1.2c-0.2-0.3-0.5-0.6-0.9-0.8c-0.3-0.2-0.8-0.3-1.2-0.3c-0.6,0-1.2,0.2-1.7,0.7s-1.2,1.1-1.9,2v9.6
			c0,0.1,0,0.1-0.1,0.2c0,0.1-0.1,0.1-0.2,0.1c-0.1,0-0.2,0.1-0.4,0.1c-0.2,0-0.4,0-0.6,0c-0.2,0-0.4,0-0.6,0
			c-0.2,0-0.3-0.1-0.4-0.1c-0.1,0-0.2-0.1-0.2-0.1c0-0.1-0.1-0.1-0.1-0.2v-8.3c0-0.6-0.1-1.1-0.2-1.6c-0.1-0.5-0.3-0.9-0.5-1.2
			c-0.2-0.3-0.5-0.6-0.8-0.8c-0.3-0.2-0.7-0.3-1.2-0.3c-0.6,0-1.2,0.2-1.7,0.7c-0.6,0.4-1.2,1.1-1.9,2v9.6c0,0.1,0,0.1-0.1,0.2
			c0,0.1-0.1,0.1-0.2,0.1c-0.1,0-0.2,0.1-0.4,0.1c-0.2,0-0.4,0-0.6,0c-0.2,0-0.4,0-0.6,0c-0.2,0-0.3-0.1-0.4-0.1
			c-0.1,0-0.2-0.1-0.2-0.1c0-0.1-0.1-0.1-0.1-0.2v-13.7c0-0.1,0-0.1,0-0.2s0.1-0.1,0.2-0.2c0.1,0,0.2-0.1,0.3-0.1c0.1,0,0.3,0,0.6,0
			c0.2,0,0.4,0,0.6,0s0.3,0,0.3,0.1c0.1,0,0.1,0.1,0.2,0.2c0,0.1,0.1,0.1,0.1,0.2v1.8c0.8-0.9,1.5-1.5,2.2-1.9s1.5-0.6,2.2-0.6
			c0.6,0,1.1,0.1,1.5,0.2c0.5,0.1,0.8,0.3,1.2,0.6c0.3,0.2,0.6,0.5,0.9,0.9c0.2,0.3,0.4,0.7,0.6,1.1c0.5-0.5,0.9-0.9,1.3-1.3
			c0.4-0.3,0.8-0.6,1.2-0.8c0.4-0.2,0.8-0.4,1.1-0.5c0.4-0.1,0.7-0.1,1.1-0.1c0.9,0,1.6,0.2,2.2,0.5s1.1,0.7,1.5,1.2
			c0.4,0.5,0.6,1.1,0.8,1.8s0.2,1.4,0.2,2.2V163.8z"/>
		<path class="st0" d="M398.7,156.8c0,1.2-0.1,2.3-0.4,3.2c-0.3,1-0.6,1.8-1.1,2.4c-0.5,0.7-1.1,1.2-1.9,1.5
			c-0.7,0.4-1.6,0.5-2.5,0.5c-0.4,0-0.8,0-1.1-0.1c-0.3-0.1-0.7-0.2-1-0.4c-0.3-0.2-0.7-0.4-1-0.7c-0.3-0.3-0.7-0.6-1-0.9v6.8
			c0,0.1,0,0.2-0.1,0.2c0,0.1-0.1,0.1-0.2,0.2c-0.1,0-0.2,0.1-0.4,0.1c-0.2,0-0.4,0-0.6,0c-0.2,0-0.4,0-0.6,0
			c-0.2,0-0.3-0.1-0.4-0.1c-0.1,0-0.2-0.1-0.2-0.2c0-0.1-0.1-0.1-0.1-0.2v-19.1c0-0.1,0-0.2,0-0.2s0.1-0.1,0.2-0.1
			c0.1,0,0.2-0.1,0.3-0.1c0.1,0,0.3,0,0.5,0c0.2,0,0.4,0,0.5,0s0.3,0,0.3,0.1c0.1,0,0.2,0.1,0.2,0.1s0.1,0.1,0.1,0.2v1.8
			c0.4-0.4,0.8-0.8,1.2-1.1s0.8-0.6,1.2-0.8c0.4-0.2,0.8-0.4,1.2-0.5s0.8-0.2,1.3-0.2c1,0,1.8,0.2,2.5,0.6c0.7,0.4,1.3,0.9,1.7,1.6
			c0.4,0.7,0.8,1.4,1,2.3C398.6,154.8,398.7,155.8,398.7,156.8z M396.1,157c0-0.7-0.1-1.4-0.2-2c-0.1-0.7-0.3-1.2-0.6-1.7
			s-0.6-0.9-1-1.2c-0.4-0.3-1-0.5-1.6-0.5c-0.3,0-0.6,0-1,0.1c-0.3,0.1-0.6,0.2-1,0.5c-0.3,0.2-0.7,0.5-1,0.8
			c-0.4,0.3-0.7,0.8-1.1,1.3v5.4c0.7,0.8,1.4,1.5,2,1.9c0.6,0.4,1.3,0.7,2,0.7c0.6,0,1.2-0.2,1.6-0.5c0.5-0.3,0.8-0.7,1.1-1.2
			c0.3-0.5,0.5-1.1,0.6-1.7C396,158.3,396.1,157.7,396.1,157z"/>
		<path class="st0" d="M412.8,163.8c0,0.1,0,0.2-0.1,0.3c-0.1,0.1-0.2,0.1-0.3,0.1c-0.1,0-0.3,0-0.6,0c-0.3,0-0.5,0-0.6,0
			c-0.2,0-0.3-0.1-0.3-0.1c-0.1-0.1-0.1-0.2-0.1-0.3v-1.4c-0.6,0.6-1.3,1.1-2,1.5s-1.5,0.5-2.3,0.5c-0.7,0-1.4-0.1-2-0.3
			c-0.6-0.2-1.1-0.5-1.5-0.8c-0.4-0.4-0.7-0.8-1-1.3c-0.2-0.5-0.3-1.1-0.3-1.8c0-0.8,0.2-1.4,0.5-2s0.8-1,1.4-1.4
			c0.6-0.4,1.3-0.7,2.2-0.8s1.8-0.3,2.9-0.3h1.9v-1.1c0-0.5-0.1-1-0.2-1.4c-0.1-0.4-0.3-0.7-0.5-1c-0.2-0.3-0.6-0.5-1-0.6
			s-0.9-0.2-1.5-0.2c-0.6,0-1.2,0.1-1.7,0.2c-0.5,0.1-0.9,0.3-1.3,0.5c-0.4,0.2-0.7,0.3-0.9,0.5c-0.2,0.1-0.4,0.2-0.6,0.2
			c-0.1,0-0.2,0-0.2-0.1c-0.1,0-0.1-0.1-0.2-0.2c0-0.1-0.1-0.2-0.1-0.3c0-0.1,0-0.3,0-0.4c0-0.3,0-0.5,0.1-0.6
			c0-0.1,0.1-0.3,0.3-0.4c0.1-0.1,0.4-0.3,0.7-0.5s0.7-0.3,1.2-0.5c0.4-0.1,0.9-0.3,1.4-0.4c0.5-0.1,1-0.1,1.6-0.1
			c1,0,1.8,0.1,2.5,0.3c0.7,0.2,1.2,0.5,1.7,1s0.7,1,0.9,1.6c0.2,0.6,0.3,1.4,0.3,2.2V163.8z M410.3,157.6h-2.1
			c-0.7,0-1.3,0.1-1.8,0.2c-0.5,0.1-0.9,0.3-1.3,0.5c-0.3,0.2-0.6,0.5-0.7,0.8c-0.2,0.3-0.2,0.7-0.2,1.1c0,0.7,0.2,1.3,0.7,1.7
			s1.1,0.6,1.9,0.6c0.7,0,1.3-0.2,1.8-0.5c0.6-0.3,1.2-0.8,1.8-1.5V157.6z"/>
		<path class="st0" d="M429.1,163.8c0,0.1,0,0.1-0.1,0.2c0,0.1-0.1,0.1-0.2,0.1c-0.1,0-0.2,0.1-0.4,0.1c-0.2,0-0.4,0-0.6,0
			c-0.3,0-0.5,0-0.6,0c-0.2,0-0.3-0.1-0.4-0.1c-0.1,0-0.2-0.1-0.2-0.1s-0.1-0.1-0.1-0.2v-8c0-0.8-0.1-1.4-0.2-1.9
			c-0.1-0.5-0.3-0.9-0.5-1.2c-0.2-0.3-0.5-0.6-0.9-0.8c-0.4-0.2-0.8-0.3-1.3-0.3c-0.6,0-1.3,0.2-1.9,0.7c-0.6,0.4-1.3,1.1-2,2v9.6
			c0,0.1,0,0.1-0.1,0.2c0,0.1-0.1,0.1-0.2,0.1c-0.1,0-0.2,0.1-0.4,0.1c-0.2,0-0.4,0-0.6,0c-0.2,0-0.4,0-0.6,0
			c-0.2,0-0.3-0.1-0.4-0.1c-0.1,0-0.2-0.1-0.2-0.1c0-0.1-0.1-0.1-0.1-0.2v-13.7c0-0.1,0-0.1,0-0.2s0.1-0.1,0.2-0.2
			c0.1,0,0.2-0.1,0.3-0.1c0.1,0,0.3,0,0.6,0c0.2,0,0.4,0,0.6,0s0.3,0,0.3,0.1c0.1,0,0.1,0.1,0.2,0.2c0,0.1,0.1,0.1,0.1,0.2v1.8
			c0.8-0.9,1.5-1.5,2.3-1.9c0.8-0.4,1.5-0.6,2.3-0.6c0.9,0,1.7,0.2,2.3,0.5s1.1,0.7,1.5,1.2c0.4,0.5,0.7,1.1,0.8,1.8
			s0.3,1.5,0.3,2.5V163.8z"/>
		<path class="st0" d="M439.4,164.2l-1.8,5c-0.1,0.2-0.2,0.3-0.5,0.4c-0.2,0.1-0.6,0.1-1.1,0.1c-0.3,0-0.5,0-0.6,0s-0.3-0.1-0.4-0.1
			c-0.1-0.1-0.1-0.1-0.1-0.2c0-0.1,0-0.2,0.1-0.4l1.9-4.8c-0.1,0-0.2-0.1-0.3-0.2c-0.1-0.1-0.1-0.2-0.2-0.3l-4.9-13.1
			c-0.1-0.2-0.1-0.4-0.1-0.5s0-0.2,0.1-0.3c0.1-0.1,0.2-0.1,0.4-0.1s0.4,0,0.7,0s0.5,0,0.7,0c0.2,0,0.3,0,0.4,0.1
			c0.1,0,0.2,0.1,0.2,0.2c0,0.1,0.1,0.2,0.1,0.3l3.9,11h0l3.8-11c0.1-0.2,0.1-0.3,0.2-0.4c0.1-0.1,0.2-0.1,0.4-0.1
			c0.2,0,0.4,0,0.7,0c0.3,0,0.5,0,0.7,0c0.2,0,0.3,0.1,0.4,0.1s0.1,0.2,0.1,0.3s0,0.3-0.1,0.5L439.4,164.2z"/>
	</g>
	<g>
		<path class="st0" d="M137,111.4l2-0.3c2.3-0.3,2.7-0.6,2.7-2.9v-40l-4.5-0.3v-6.7h38.8v13.1l-8.3,0.7v-4c0-1.6-0.5-2.2-2.2-2.2
			h-13.4v16.2h20.4v7.8h-20.4v17.5h14.3c1.7,0,2-0.6,2-2.3v-4.4l8.3,0.7v13.6H137V111.4z"/>
		<path class="st0" d="M192.7,96.2c0,8.6,4.5,14.6,12.1,14.6c3.4,0,6.7-1.3,10.1-3.8l3.8,6.8c-3.3,2.7-8.6,5.3-15.1,5.3
			c-12.6,0-21.3-7.5-21.3-22.4c0-17.1,12.1-22.8,22-22.8c5.3,0,9.7,1.1,13.2,3.3v12.1l-7.9,0.6v-5c0-1.4-0.2-2.1-1.4-2.6
			c-0.9-0.3-2.3-0.4-3.3-0.4C198.2,81.8,192.7,86.2,192.7,96.2z"/>
		<path class="st0" d="M262.4,108.7c0,2,0.3,2.5,1.9,2.7l2.4,0.3v6.1H253v-5.5h-0.2c-2.6,4.5-7.3,6.7-12.8,6.7
			c-8.9,0-13.4-4.6-13.4-14.6V84c0-1.8-0.5-2.2-2.1-2.5l-2.4-0.2v-6.5h14.7v27.3c0,5.7,1,8.6,6.6,8.6c5.1,0,8.9-3.9,8.9-9.5V84.1
			c0-2-0.4-2.3-2-2.6l-2.3-0.2v-6.5h14.4V108.7z"/>
		<path class="st0" d="M276.3,84c0-1.8-0.5-2.4-2.1-2.5l-2.7-0.2v-6.5h14.1v5.5c0.1,0,0.1,0.1,0.2,0.1c2.6-4.9,7.8-6.7,12.4-6.7
			c10.6,0,15.5,8,15.5,21.6c0,14.9-6.4,23.7-18.1,23.7c-3.5,0-6.9-1-9.3-2.5v12.1l6.9,0.4v6.4h-21.6v-6.1l2.6-0.3
			c1.6-0.3,2.1-0.7,2.1-2.8V84z M286.4,108.5c2,1.6,5,2.6,7.8,2.6c6.9,0,9.3-6.6,9.3-14.8c0-8.2-1.8-14.6-8.4-14.6
			c-6,0-8.7,4.9-8.7,7.8V108.5z"/>
		<path class="st0" d="M323.7,66.2c0-2-0.5-2.4-2.1-2.5l-2.7-0.3v-6.4h14.7v23.8c3-5.5,8.1-7.1,12.4-7.1c9.9,0,13.4,6,13.4,14.6
			v22.8l4.3,0.3v6.4h-18.9v-6.1l2.6-0.3c1.4-0.3,1.8-1,1.8-2.8V90.6c0-5.1-1.1-8.4-6.8-8.4c-5.2,0-8.8,4.2-8.8,9.3v19.8l4.2,0.2v6.5
			H319v-6.1l2.5-0.3c1.6-0.3,2.2-0.7,2.2-2.8V66.2z"/>
		<path class="st0" d="M433.8,91v20.1l6.8,0.3v6.4h-21.5v-6.1l2.6-0.3c2-0.3,2.1-0.9,2.1-2.8V83.9c0-1.7-0.5-2.1-2-2.4l-2.9-0.2
			v-6.5h14v6.5h0.1c1.6-3.7,5.2-7.6,12.1-7.6c2.5,0,5.5,0.3,7.8,1.6v14.2l-8.5,0.6v-5.4c0-1.4-0.1-2-0.8-2.2
			c-0.5-0.3-1.3-0.4-2.4-0.4C436.6,82.2,433.8,86,433.8,91z"/>
		<path class="st0" d="M410.1,110.8V74.6h-8.7v4c-3.8-3-8.6-4.8-13.7-4.8c-12.3,0-22.2,9.9-22.2,22.2c0,12.3,9.9,22.2,22.2,22.2
			c5.2,0,10-1.8,13.7-4.8v4.2h13.2v-6.4L410.1,110.8z M387.7,109.2c-7.3,0-13.2-5.9-13.2-13.2s5.9-13.2,13.2-13.2
			c7.3,0,13.2,5.9,13.2,13.2S395,109.2,387.7,109.2z"/>
	</g>
	<g>
		<path class="st1" d="M15,74.6c1.8-9.2,6.8-17.2,13.7-23.1c11.2-10.6,27.5-16.3,44.6-14.1c21.8,2.8,38.7,17.7,43.7,36.4
			c-3.8-23.5-23.8-42.9-50.3-46.3C34.4,23.4,4.5,44.4,0.1,74.4c-0.6,3.9,2.5,7.5,6.8,7.8c3.4,0.2,6.4-1.9,7.5-4.8
			C14.5,76.5,14.7,75.5,15,74.6z"/>
	</g>
	<g>
		<path class="st1" d="M105.5,104.6c-2.8,9-8.8,16.6-16.4,21.8c-12.5,9.5-29.4,13.6-46.3,9.7c-21.5-5-36.7-21.6-39.6-40.8
			c1.1,23.9,18.9,45.4,45.1,51.4c31.8,7.4,64.2-10.8,72.1-40.4c1-3.9-1.7-7.8-5.9-8.5c-3.4-0.5-6.6,1.2-8,4
			C106.1,102.7,105.8,103.7,105.5,104.6z"/>
	</g>
	<g>
		<path class="st1" d="M48.2,57.5c7.3-2.2,14.9-2,21.8,0.2C81.7,60.9,91.7,69,96.4,80.5c5.9,14.7,1.3,30.7-10.4,40.7
			c15.6-10.9,22.4-30.6,15.2-48.4C92.4,51,66.2,40,42.9,48.1c-3,1.1-4.5,4.3-3.1,7.1c1.1,2.2,3.7,3.3,6.2,2.9
			C46.7,57.9,47.4,57.7,48.2,57.5z"/>
	</g>
	<g>
		<path class="st1" d="M69,119.5c-6.5,1.8-13.1,1.4-19-0.7c-10.2-3.1-18.7-10.4-22.5-20.5c-4.8-13-0.3-26.8,10.2-35.3
			c-14,9.2-20.4,26.1-14.6,41.9c7.1,19.2,29.6,29.4,50.2,22.9c2.7-0.9,4.1-3.7,2.9-6.1c-0.9-1.9-3.1-3-5.3-2.7
			C70.3,119.1,69.6,119.3,69,119.5z"/>
	</g>
	<g>
		<path class="st1" d="M53.3,71c4.9-1.6,10.1-1.5,14.7-0.1c8,2,14.9,7.4,18.2,15.1c4.2,9.9,1.2,20.7-6.6,27.6
			C90,106,94.4,92.7,89.3,80.7c-6.2-14.6-24-21.8-39.7-16c-2,0.8-3,3-2,4.8c0.8,1.5,2.5,2.2,4.2,1.9C52.3,71.3,52.8,71.1,53.3,71z"
			/>
	</g>
	<g>
		<path class="st1" d="M76.1,95.3c-1.2,3.8-3.7,6.9-7,9.1c-5.3,3.9-12.4,5.6-19.4,3.9c-9-2.2-15.3-9.2-16.4-17.3
			c0.3,10,7.7,19.1,18.6,21.7c13.3,3.2,26.9-4.2,30.4-16.6c0.5-1.6-0.7-3.3-2.4-3.6c-1.4-0.2-2.8,0.5-3.4,1.7
			C76.4,94.6,76.2,95,76.1,95.3z"/>
	</g>
</g>
</svg>
